<?xml version="1.0" standalone="no"?>
<!DOCTYPE svg PUBLIC "-//W3C//DTD SVG 20010904//EN"
 "http://www.w3.org/TR/2001/REC-SVG-20010904/DTD/svg10.dtd">
<svg version="1.0" xmlns="http://www.w3.org/2000/svg"
 width="250.000000pt" height="250.000000pt" viewBox="0 0 250.000000 250.000000"
 preserveAspectRatio="xMidYMid meet">
<metadata>
Created by potrace 1.14, written by Peter Selinger 2001-2017
</metadata>
<g transform="translate(0.000000,250.000000) scale(0.100000,-0.100000)"
fill="#000000" stroke="none">
<path d="M1175 2001 c-91 -12 -162 -35 -259 -88 -68 -37 -106 -67 -169 -134
-99 -103 -126 -151 -167 -294 -45 -157 -45 -272 0 -405 53 -156 83 -205 183
-302 74 -71 109 -97 182 -132 287 -140 607 -86 830 138 97 98 142 178 181 326
30 113 37 260 15 310 l-11 25 4 -29 c2 -16 -1 -45 -6 -65 -10 -36 -11 -36 -20
-11 -11 29 -2 101 14 111 22 14 -77 247 -102 241 -6 -1 -8 2 -4 9 4 7 -29 46
-84 99 -135 130 -271 191 -452 203 -41 3 -102 2 -135 -2z m-20 -21 c-3 -5 -16
-10 -28 -10 -18 0 -19 2 -7 10 20 13 43 13 35 0z m152 -3 c-2 -7 -23 -12 -48
-12 -24 0 -47 -4 -50 -9 -9 -11 -51 3 -43 15 3 5 14 7 25 4 10 -4 19 -3 19 2
0 4 23 9 51 10 35 1 49 -2 46 -10z m78 6 c-11 -3 -22 -8 -25 -12 -18 -24 -140
-52 -140 -32 0 4 19 8 42 10 23 1 46 8 52 15 14 17 34 25 66 24 20 0 21 -1 5
-5z m-285 -23 c0 -5 -7 -10 -15 -10 -8 0 -19 -9 -25 -20 -6 -11 -21 -21 -33
-21 -18 -1 -19 -2 -4 -6 11 -3 16 -11 13 -19 -3 -7 -1 -16 4 -19 6 -4 10 -9
10 -13 0 -12 -80 -53 -90 -47 -19 12 -9 33 23 47 33 15 29 16 -11 3 -20 -6
-23 -4 -20 12 2 10 14 20 28 22 23 3 23 4 5 11 -12 4 -31 0 -53 -13 -18 -11
-35 -17 -37 -15 -10 9 33 39 61 43 47 8 100 23 84 24 -12 1 -11 5 4 16 23 17
56 20 56 5z m380 0 c11 -7 2 -9 -33 -8 -26 1 -50 -2 -54 -5 -3 -4 7 -7 23 -8
104 -2 172 -15 197 -36 26 -24 13 -27 -25 -7 -18 10 -39 17 -46 16 -6 -2 -27
1 -45 6 -17 5 -43 5 -57 1 l-25 -7 27 -1 c15 -1 30 -6 33 -11 4 -7 -9 -9 -37
-5 l-43 5 43 -11 c42 -10 57 -28 25 -30 -12 0 -13 -2 -5 -6 9 -4 10 -8 2 -18
-9 -11 -17 -10 -46 7 -43 25 -55 43 -23 33 18 -5 20 -4 9 4 -15 10 -16 14 -19
46 0 8 -9 15 -18 15 -27 0 -2 18 32 23 54 7 70 7 85 -3z m-315 -10 c16 -7 13
-9 -17 -9 -21 -1 -38 4 -38 9 0 12 27 12 55 0z m-6 -26 c2 -2 -18 -4 -45 -4
-34 0 -44 3 -34 9 12 9 68 4 79 -5z m-29 -23 l-25 -8 24 -4 c14 -2 26 -9 28
-15 5 -15 -63 -58 -77 -49 -17 10 -11 21 18 33 24 10 25 11 2 5 -41 -9 -42 -9
-46 11 -5 31 4 36 54 35 37 -1 42 -3 22 -8z m439 -17 c23 -21 5 -28 -35 -13
-50 19 -58 41 -12 33 18 -4 39 -13 47 -20z m-384 6 c3 -6 -1 -7 -9 -4 -18 7
-21 14 -7 14 6 0 13 -4 16 -10z m169 -9 c-10 -10 -29 -17 -41 -16 -13 1 -23
-2 -23 -6 0 -5 -4 -9 -10 -9 -5 0 -10 6 -10 14 0 9 9 13 25 11 14 -1 33 4 42
11 27 20 39 17 17 -5z m-474 -5 c0 -2 -12 -11 -27 -20 l-28 -17 24 20 c23 21
31 25 31 17z m60 -14 c0 -18 -76 -69 -86 -59 -16 16 32 59 84 76 1 1 2 -7 2
-17z m300 3 c0 -5 5 -3 10 5 8 13 10 12 10 -3 0 -18 -29 -21 -41 -3 -4 4 -21
-8 -39 -28 -18 -20 -41 -36 -52 -36 -37 0 -16 25 57 66 24 14 55 14 55 -1z
m388 4 c27 -9 52 -43 40 -54 -6 -7 -78 45 -78 55 0 12 0 12 38 -1z m-64 -19
c17 -6 24 -14 20 -25 -8 -19 -15 -19 -59 2 -41 20 -49 49 -10 39 13 -3 35 -10
49 -16z m-165 -7 c34 -20 39 -31 15 -40 -9 -3 -28 6 -47 23 l-32 29 29 -32
c17 -18 25 -33 19 -33 -6 0 -18 -3 -26 -6 -10 -4 -21 4 -31 23 -8 15 -15 24
-15 18 -1 -5 4 -17 9 -25 7 -11 5 -17 -8 -22 -14 -6 -14 -7 4 -7 12 -1 26 -11
32 -23 l11 -23 -2 25 c-3 38 39 40 69 3 31 -37 30 -41 -12 -49 -26 -5 -39 -3
-45 7 -7 11 -9 11 -9 -2 0 -12 -11 -18 -41 -21 l-40 -4 3 45 c1 26 -2 46 -9
48 -7 3 -9 -11 -5 -42 l5 -46 -59 2 c-57 2 -170 31 -187 48 -9 9 48 61 66 61
31 -1 38 -16 17 -42 -31 -40 -24 -47 8 -9 22 27 33 32 50 27 12 -4 22 -14 22
-22 0 -11 4 -10 18 4 10 9 15 18 11 20 -4 2 -3 16 3 33 12 34 37 39 39 7 2
-22 2 -22 6 -2 3 14 16 24 41 31 53 15 57 15 91 -4z m-184 -20 c-9 -38 -19
-46 -45 -38 -22 7 -22 7 6 36 35 36 48 37 39 2z m313 -6 c42 -23 43 -23 23
-41 -19 -17 -21 -17 -55 9 -36 28 -41 36 -29 48 9 10 13 9 61 -16z m192 3 c26
-19 47 -60 30 -60 -12 0 -70 57 -70 69 0 16 8 14 40 -9z m-879 -12 c-4 -12
-23 -33 -41 -47 l-33 -26 7 30 c4 16 8 30 9 31 1 0 13 8 27 17 33 23 41 21 31
-5z m108 -13 c0 -5 -18 -22 -40 -38 l-39 -27 -11 26 c-5 15 -8 28 -7 29 2 1
21 12 43 23 39 20 55 16 54 -13z m125 27 c3 -5 -10 -24 -30 -43 l-34 -33 -21
21 -21 20 34 21 c35 22 64 27 72 14z m571 -9 c19 -9 35 -21 35 -25 0 -19 -29
-74 -47 -90 -19 -17 -21 -16 -53 17 -32 34 -33 35 -16 54 18 20 19 20 52 -6
19 -14 37 -23 40 -21 3 3 -11 16 -30 28 -21 12 -36 30 -36 41 0 23 9 24 55 2z
m-159 -30 c18 -16 34 -31 34 -34 0 -3 -12 -11 -27 -18 -25 -12 -29 -10 -55 21
-25 30 -26 34 -11 46 22 16 19 16 59 -15z m324 -44 c22 -40 29 -124 12 -141
-12 -12 -63 57 -57 76 17 55 15 53 26 34 6 -10 15 -18 21 -18 6 0 2 10 -10 23
-11 12 -26 35 -32 52 l-11 29 21 -19 c12 -11 26 -27 30 -36z m-850 -34 l-34
-35 -25 25 c-25 25 -25 25 -6 39 11 8 29 21 40 30 18 13 22 13 40 -4 19 -20
19 -20 -15 -55z m775 50 c26 -19 31 -30 28 -50 -8 -38 -16 -38 -52 -1 -25 25
-31 39 -26 55 8 27 11 26 50 -4z m-975 0 c0 -8 -14 -29 -31 -47 -29 -31 -30
-32 -23 -8 5 21 41 70 51 70 2 0 3 -7 3 -15z m89 -7 c7 -19 3 -29 -22 -55 -17
-18 -34 -33 -38 -33 -4 0 -11 14 -14 31 -6 27 -3 35 21 55 36 29 43 29 53 2z
m720 -42 l33 -34 -40 -21 -40 -21 -21 36 c-26 44 -26 48 2 62 31 15 30 16 66
-22z m-526 13 c12 -7 23 -13 25 -14 6 -5 -40 -75 -49 -75 -4 0 -24 8 -44 17
l-35 17 32 33 c35 37 40 38 71 22z m667 -34 l34 -35 -28 -29 -28 -29 -34 38
-35 39 22 25 c13 14 25 26 29 26 3 0 21 -16 40 -35z m-955 -69 c-30 -41 -41
-42 -54 -5 -10 30 -9 35 21 66 l33 34 11 -33 c10 -29 9 -37 -11 -62z m165 48
c0 -10 -53 -74 -61 -74 -4 0 -21 11 -36 24 l-28 25 34 35 34 35 29 -20 c15
-11 28 -23 28 -25z m-250 -19 c-12 -25 -25 -44 -27 -41 -3 3 5 26 17 51 12 25
25 44 27 41 3 -3 -5 -26 -17 -51z m484 35 c11 -11 -3 -70 -19 -76 -13 -5 -95
13 -95 21 0 2 9 20 21 39 18 31 24 35 52 29 18 -3 36 -9 41 -13z m335 -16 c12
-20 21 -37 19 -38 -13 -9 -90 -26 -97 -21 -8 5 -23 52 -22 72 0 8 34 20 63 22
9 1 26 -15 37 -35z m-221 -32 l3 -43 -58 3 c-63 3 -65 6 -42 65 8 21 14 24 51
21 43 -3 43 -3 46 -46z m118 6 c7 -20 10 -39 7 -42 -4 -3 -30 -6 -60 -6 l-53
0 0 38 c0 49 5 54 54 50 35 -3 40 -7 52 -40z m494 -2 c0 -5 -7 -1 -15 10 -8
10 -14 24 -14 29 0 6 6 1 14 -9 8 -11 15 -24 15 -30z m-236 -10 c14 -19 26
-37 26 -40 0 -6 -75 -46 -87 -46 -4 0 -18 18 -31 40 l-22 39 37 20 c21 11 41
20 44 21 4 0 18 -15 33 -34z m-669 7 c19 -9 35 -20 35 -25 0 -14 -34 -78 -42
-78 -4 0 -28 10 -52 22 l-45 21 27 38 c15 21 30 39 34 39 4 0 23 -8 43 -17z
m811 -28 l27 -36 -33 -34 -33 -35 -24 35 c-13 19 -23 38 -23 43 0 13 40 62 50
62 5 0 21 -16 36 -35z m107 -54 c-12 -50 -18 -53 -40 -14 -16 31 -18 45 -11
72 l9 33 24 -32 c18 -24 23 -41 18 -59z m-1069 50 l28 -29 -23 -41 c-12 -23
-25 -41 -29 -41 -3 0 -21 15 -39 34 l-33 34 27 36 c15 20 30 36 34 36 4 0 20
-13 35 -29z m-126 -13 c10 -27 9 -36 -9 -65 -12 -19 -19 -36 -16 -39 3 -3 13
8 23 25 10 17 21 31 24 31 3 0 21 -16 40 -35 l33 -34 -18 -41 c-10 -22 -21
-40 -24 -40 -17 0 -82 80 -101 122 l-21 48 22 30 c13 16 25 30 29 30 3 0 11
-14 18 -32z m843 -9 c11 -23 17 -45 12 -49 -16 -14 -104 -33 -113 -24 -5 5
-11 25 -15 46 l-7 36 49 15 c26 8 49 15 50 16 2 1 12 -18 24 -40z m-446 15
c17 -4 33 -8 36 -10 6 -3 -7 -84 -14 -90 -3 -4 -118 24 -124 29 -2 3 5 24 17
47 15 29 26 40 38 36 9 -3 31 -8 47 -12z m173 -66 l3 -48 -33 0 c-18 0 -50 3
-71 6 -37 7 -37 7 -31 43 9 52 10 52 72 49 l57 -3 3 -47z m149 12 c6 -22 8
-42 4 -44 -3 -2 -36 -7 -73 -11 l-68 -7 0 44 c0 25 3 48 7 51 3 4 32 7 63 7
l56 0 11 -40z m292 -6 c12 -19 19 -40 15 -45 -3 -5 -27 -20 -54 -34 l-49 -25
-17 45 c-9 25 -15 47 -13 48 24 18 76 47 86 47 6 0 21 -16 32 -36z m-795 6
c50 -21 54 -32 32 -85 l-14 -33 -56 26 c-31 14 -56 30 -56 35 0 10 39 77 45
77 2 0 24 -9 49 -20z m920 -101 l-38 -39 -22 42 -22 43 36 37 36 38 24 -41 24
-41 -38 -39z m94 77 c11 -31 9 -74 -6 -100 -11 -19 -33 60 -27 96 8 47 17 48
33 4z m-1278 -52 c0 -17 -21 -64 -30 -64 -3 0 -12 15 -18 34 -11 29 -10 41 3
73 l16 38 15 -34 c8 -18 14 -39 14 -47z m941 10 c11 -26 18 -48 17 -49 -3 -2
-135 -35 -142 -35 -4 0 -18 70 -17 87 0 6 33 18 119 42 1 1 12 -20 23 -45z
m-528 16 l48 -13 -7 -41 c-3 -23 -8 -44 -10 -47 -2 -3 -35 1 -74 10 -65 15
-70 18 -65 38 13 55 25 74 43 70 9 -3 39 -11 65 -17z m153 -20 l54 0 0 -51 0
-52 -61 7 c-34 3 -70 6 -81 6 -16 0 -18 5 -13 38 10 57 14 65 31 58 9 -3 40
-6 70 -6z m218 -7 c2 -10 7 -33 11 -50 6 -32 6 -33 -28 -33 -19 0 -55 -3 -81
-6 l-46 -7 0 51 0 51 43 4 c91 8 96 7 101 -10z m326 -23 c11 -21 20 -42 20
-44 0 -7 -102 -66 -113 -66 -7 0 -16 20 -31 67 -6 18 1 26 46 51 29 16 54 30
55 31 2 0 12 -17 23 -39z m-887 -5 l56 -24 -15 -46 c-9 -25 -17 -45 -19 -45
-5 0 -120 52 -124 56 -6 6 31 84 39 84 4 0 33 -11 63 -25z m1042 -67 l26 -82
-44 -44 -45 -45 -7 43 c-6 36 -4 46 17 68 46 51 52 67 11 29 l-41 -39 -15 45
-15 44 36 36 c20 20 39 34 43 31 5 -3 20 -41 34 -86z m-1171 2 c-5 -31 -18
-71 -25 -76 -5 -3 -27 12 -50 33 l-41 38 17 43 17 42 42 -37 c22 -21 41 -40
40 -43z m-140 -40 l-6 -45 -19 43 c-17 40 -18 77 -1 106 12 21 33 -61 26 -104z
m1028 35 l17 -45 -42 -10 c-23 -6 -59 -16 -80 -22 -20 -6 -39 -9 -41 -7 -2 2
-7 25 -11 50 l-7 45 64 16 c34 9 68 16 73 17 6 0 18 -19 27 -44z m-632 26 c19
-5 48 -12 63 -15 27 -6 28 -8 21 -54 -3 -26 -7 -48 -8 -49 -2 -2 -46 8 -129
29 -33 8 -37 12 -31 31 23 73 23 74 84 58z m819 -93 c1 -8 -129 -83 -132 -77
-2 2 -8 23 -14 46 l-10 43 61 34 61 33 17 -36 c9 -20 17 -39 17 -43z m-606 62
l57 0 0 -50 0 -50 -44 0 c-24 0 -64 3 -90 6 l-46 7 6 36 c9 59 12 64 37 57 12
-3 48 -6 80 -6z m250 -38 c5 -24 7 -45 5 -47 -2 -1 -42 -6 -90 -10 l-88 -7 0
51 0 50 48 4 c26 2 63 3 82 3 33 -1 35 -3 43 -44z m-625 7 l54 -22 -7 -46 c-4
-25 -8 -47 -10 -49 -1 -2 -35 11 -74 29 -62 28 -71 35 -65 53 17 53 25 68 37
63 6 -3 36 -15 65 -28z m-144 -38 c15 -16 17 -29 11 -67 l-7 -47 -48 48 c-46
46 -47 48 -38 86 l10 39 27 -19 c14 -10 34 -28 45 -40z m-111 -50 c-9 -34 -23
-5 -22 44 l1 40 13 -31 c8 -17 11 -41 8 -53z m1389 33 c-6 -35 -12 -29 -12 14
0 23 3 32 9 24 4 -7 6 -24 3 -38z m-307 -25 l7 -36 -82 -22 c-45 -13 -84 -20
-87 -17 -3 3 -8 24 -10 48 l-5 43 78 20 c86 22 88 21 99 -36z m-595 -35 c0
-23 -3 -45 -7 -47 -15 -8 -173 35 -173 46 0 7 5 28 10 48 l10 37 80 -20 80
-20 0 -44z m764 25 c3 -17 6 -37 6 -43 0 -12 -126 -83 -134 -75 -3 2 -8 23
-11 44 l-6 40 58 32 c32 18 63 32 69 33 6 0 14 -14 18 -31z m-965 -63 c-1 -12
-4 -33 -8 -47 l-6 -26 -73 34 -73 33 7 37 c4 21 8 41 10 45 3 4 36 -7 74 -24
56 -25 70 -35 69 -52z m605 68 c3 -9 6 -30 6 -48 l0 -33 -67 -6 c-126 -12
-123 -13 -123 38 0 49 3 51 85 58 85 8 93 7 99 -9z m475 -41 c1 -15 -67 -93
-80 -93 -5 0 -9 17 -9 37 0 29 8 45 38 76 36 37 37 37 44 15 3 -13 6 -29 7
-35z m-1261 -77 l-3 -37 -42 36 c-39 33 -43 41 -43 83 l0 47 46 -46 c40 -40
45 -50 42 -83z m570 118 c18 -5 22 -13 22 -50 l0 -44 -54 0 c-29 0 -74 3 -100
6 -49 7 -54 17 -40 72 6 20 12 22 78 22 39 0 81 -3 94 -6z m424 -74 c1 -16 2
-37 2 -46 1 -13 -20 -23 -83 -41 -46 -13 -86 -22 -89 -19 -3 3 -6 25 -6 47
l-1 42 75 22 c99 30 100 30 102 -5z m-1104 -11 c-3 -8 -7 -3 -11 10 -4 17 -3
21 5 13 5 -5 8 -16 6 -23z m410 6 l72 -17 0 -48 0 -48 -62 14 c-35 9 -75 18
-91 21 -36 7 -39 14 -31 63 5 31 10 39 23 36 9 -3 49 -12 89 -21z m862 -50 c0
-27 -7 -34 -71 -66 l-70 -37 3 45 c3 43 5 46 63 78 65 36 75 33 75 -20z
m-1066 5 c65 -30 66 -31 66 -70 0 -22 -5 -40 -10 -40 -9 0 -128 56 -138 65 -4
3 9 75 13 75 1 0 32 -14 69 -30z m489 11 c4 -1 7 -21 7 -46 l0 -45 -44 0 c-23
0 -71 3 -105 6 -58 6 -61 8 -61 33 0 66 2 67 103 59 51 -3 95 -7 100 -7z m217
-31 c0 -50 0 -50 -32 -50 -18 0 -63 -3 -100 -7 l-68 -6 0 46 c0 51 1 51 105
60 103 9 95 13 95 -43z m409 -47 l-42 -45 7 38 c5 23 21 53 39 72 l32 33 3
-26 c3 -19 -7 -38 -39 -72z m-1209 -26 l0 -28 -45 38 c-36 31 -44 44 -45 73
l0 34 45 -44 c33 -32 45 -52 45 -73z m1000 39 c0 -13 3 -31 6 -40 4 -11 -10
-19 -63 -35 -133 -39 -125 -40 -121 9 l3 43 75 23 c97 28 100 28 100 0z m-697
-14 c35 -10 62 -23 61 -30 -1 -6 -2 -25 -2 -40 l-2 -29 -90 21 -90 21 0 43 c0
50 -8 49 123 14z m850 -26 c-5 -33 -12 -40 -64 -67 -32 -16 -61 -29 -64 -29
-3 0 -5 15 -5 33 0 29 6 35 68 68 37 21 68 36 69 35 1 -1 0 -19 -4 -40z
m-1063 -7 c69 -31 70 -32 70 -70 l0 -39 -70 35 c-50 25 -70 41 -70 54 0 11 -3
26 -6 35 -8 21 -5 21 76 -15z m1139 2 c-5 -15 -24 -41 -41 -57 l-30 -29 7 25
c6 20 61 90 71 90 2 0 -2 -13 -7 -29z m-1236 -42 c4 -3 12 -21 17 -39 l10 -34
-40 39 c-21 21 -44 52 -50 69 l-10 30 32 -29 c18 -17 36 -32 41 -36z m545 45
l52 -5 0 -40 0 -39 -44 0 c-23 0 -71 3 -105 6 l-61 7 0 42 0 42 53 -4 c28 -2
76 -6 105 -9z m266 0 c8 -22 8 -62 -1 -67 -5 -3 -52 -8 -105 -12 l-98 -7 0 41
c0 44 3 46 105 54 86 8 93 7 99 -9z m196 -72 l0 -38 -67 -17 c-38 -10 -78 -20
-90 -23 -21 -6 -23 -3 -23 30 0 39 -9 34 140 75 19 5 36 10 38 10 1 1 2 -16 2
-37z m-717 3 l77 -19 0 -36 0 -37 -90 20 -90 20 0 40 c0 27 4 38 13 34 6 -2
47 -12 90 -22z m857 -16 c-11 -38 -2 -30 -76 -67 l-61 -31 6 30 c5 24 18 37
66 63 33 19 63 34 67 35 4 0 3 -13 -2 -30z m-1038 -19 c52 -25 64 -35 69 -60
4 -16 5 -30 2 -30 -3 0 -124 59 -130 64 -5 4 -14 56 -10 56 3 0 34 -13 69 -30z
m702 -17 c-4 -21 -7 -39 -8 -40 -1 -1 -45 -5 -99 -9 l-97 -7 0 36 0 35 78 7
c42 4 82 8 87 10 37 13 46 5 39 -32z m-247 17 c20 0 23 -5 23 -41 0 -22 -4
-38 -8 -35 -4 2 -41 6 -82 7 -106 3 -110 5 -110 47 l0 35 77 -7 c42 -3 87 -6
100 -6z m433 -51 c-5 -18 -11 -33 -13 -36 -5 -4 -138 -43 -149 -43 -5 0 -8 13
-8 28 0 27 4 30 88 54 48 14 88 26 89 27 1 0 -2 -13 -7 -30z m-705 -8 c79 -17
80 -18 83 -51 3 -30 2 -32 -20 -26 -13 3 -53 13 -89 22 -62 14 -67 17 -71 45
-5 34 -8 33 97 10z m508 -72 c-4 -4 -50 -12 -101 -16 l-93 -9 3 31 3 30 95 10
95 10 3 -24 c2 -13 0 -27 -5 -32z m-267 41 l54 0 0 -33 0 -32 -87 7 c-49 3
-91 7 -94 7 -4 1 -9 15 -11 32 l-5 31 45 -6 c25 -3 69 -6 98 -6z"/>
<path d="M1078 1883 c7 -3 16 -2 19 1 4 3 -2 6 -13 5 -11 0 -14 -3 -6 -6z"/>
<path d="M167 1713 c-2 -5 -1 -19 4 -33 7 -23 7 -23 8 8 1 31 -3 40 -12 25z"/>
<path d="M172 1075 c0 -16 2 -22 5 -12 2 9 2 23 0 30 -3 6 -5 -1 -5 -18z"/>
<path d="M176 763 c-6 -14 -5 -15 5 -6 7 7 10 15 7 18 -3 3 -9 -2 -12 -12z"/>
<path d="M240 735 c0 -2 10 -10 23 -16 20 -11 21 -11 8 4 -13 16 -31 23 -31
12z"/>
<path d="M460 590 c0 -5 5 -10 11 -10 5 0 7 5 4 10 -3 6 -8 10 -11 10 -2 0 -4
-4 -4 -10z"/>
<path d="M382 505 c0 -16 2 -22 5 -12 2 9 2 23 0 30 -3 6 -5 -1 -5 -18z"/>
<path d="M2350 495 c-7 -9 -11 -17 -9 -20 3 -2 10 5 17 15 14 24 10 26 -8 5z"/>
<path d="M890 316 c0 -3 9 -10 20 -16 11 -6 20 -8 20 -6 0 3 -9 10 -20 16 -11
6 -20 8 -20 6z"/>
<path d="M1415 270 c3 -5 8 -10 11 -10 2 0 4 5 4 10 0 6 -5 10 -11 10 -5 0 -7
-4 -4 -10z"/>
<path d="M822 215 c0 -16 2 -22 5 -12 2 9 2 23 0 30 -3 6 -5 -1 -5 -18z"/>
<path d="M1125 160 c3 -5 8 -10 11 -10 2 0 4 5 4 10 0 6 -5 10 -11 10 -5 0 -7
-4 -4 -10z"/>
</g>
</svg>
